<?xml version="1.0" encoding="utf-8"?>
<!-- Generator: Adobe Illustrator 22.0.1, SVG Export Plug-In . SVG Version: 6.00 Build 0)  -->
<!DOCTYPE svg PUBLIC "-//W3C//DTD SVG 1.1//EN" "http://www.w3.org/Graphics/SVG/1.1/DTD/svg11.dtd">
<svg version="1.1" id="Layer_1" xmlns="http://www.w3.org/2000/svg" xmlns:xlink="http://www.w3.org/1999/xlink" x="0px" y="0px"
	 viewBox="0 0 241.6 32.7" style="enable-background:new 0 0 241.6 32.7;" xml:space="preserve">
<style type="text/css">
	.st0{fill:#EF3340;}
</style>
<polygon points="54.1,31.9 50.9,31.9 50.9,9.3 44.9,9.3 44.9,6.4 60.1,6.4 60.1,9.3 54.1,9.3 "/>
<polygon points="61.8,6.4 75.4,6.4 75.4,9.3 64.9,9.3 64.9,17.3 73.8,17.3 73.8,20.2 64.9,20.2 64.9,29 75.4,29 75.4,31.9 
	61.8,31.9 "/>
<polygon points="91.8,6.4 95.9,6.4 84.5,17.9 96.1,31.9 91.8,31.9 82.3,20 81,21.2 81,31.9 77.8,31.9 77.8,6.4 81,6.4 81,17.4 "/>
<g>
	<path d="M145.2,19.1c0-5.6-4.2-10.3-10.2-10.3c-6,0-10.2,4.7-10.2,10.3c0,5.8,4.7,10.3,10.2,10.3C140.6,29.4,145.2,24.9,145.2,19.1
		 M148.4,19.1c0,7.6-6,13.3-13.3,13.3c-7.4,0-13.3-5.7-13.3-13.3c0-7.3,6-13.3,13.3-13.3C142.4,5.9,148.4,11.8,148.4,19.1"/>
	<path d="M203.6,18.5h1c3.2,0,6.7-0.6,6.7-4.7c0-4-3.8-4.6-6.9-4.6h-0.8V18.5z M216.2,31.9h-3.8l-7.5-10.8h-1.3v10.8h-3.2V6.4h3.8
		c2.3,0,4.7,0,6.7,1.2c2.1,1.2,3.3,3.6,3.3,6.1c0,3.6-2.4,6.7-6.1,7.1L216.2,31.9z"/>
</g>
<polygon points="217.4,6.4 231,6.4 231,9.3 220.5,9.3 220.5,17.3 229.4,17.3 229.4,20.2 220.5,20.2 220.5,29 231,29 231,31.9 
	217.4,31.9 "/>
<g>
	<path class="st0" d="M7.4,19.1c-3.7,0-6.7-3-6.7-6.7c0-3.7,3-6.7,6.7-6.7c3.7,0,6.7,3,6.7,6.7C14.1,16.2,11.1,19.1,7.4,19.1"/>
	<path class="st0" d="M20.7,19.1c-3.7,0-6.7-3-6.7-6.7c0-3.7,3-6.7,6.7-6.7c3.7,0,6.7,3,6.7,6.7C27.3,16.2,24.3,19.1,20.7,19.1"/>
	<path class="st0" d="M33.9,19.1c-3.7,0-6.7-3-6.7-6.7c0-3.7,3-6.7,6.7-6.7c3.7,0,6.7,3,6.7,6.7C40.6,16.2,37.6,19.1,33.9,19.1"/>
	<path class="st0" d="M14,25.7c0-3.7,3-6.7,6.7-6.7s6.7,3,6.7,6.7c0,3.7-3,6.7-6.7,6.7S14,29.4,14,25.7"/>
</g>
<polygon points="171.6,32.4 181.9,6.4 178.5,6.4 171.4,24.6 164.2,5.9 157,24.6 149.9,6.4 146.4,6.4 156.8,32.4 157.2,32.4 
	164.2,14.2 171.2,32.4 "/>
<path d="M182.6,22.6l4.5-10.3l4.5,10.3H182.6z M187.4,5.8h-0.4L175,31.9h3.4l2.9-6.4H193l2.9,6.4h3.4L187.4,5.8z"/>
<polygon points="119.9,32.4 119.9,6.4 116.7,6.4 116.7,25.2 98.2,5.8 97.6,5.8 97.6,31.9 100.8,31.9 100.8,12.9 119.4,32.4 "/>
<g>
	<path d="M237.6,3.9c0.7,0,1.4,0,1.4-0.8c0-0.6-0.5-0.8-1.1-0.8h-1v1.6H237.6z M236.8,6.4h-0.6V1.8h1.8c1,0,1.5,0.5,1.5,1.3
		c0,0.8-0.5,1.2-1.2,1.3l1.4,2h-0.7l-1.3-2h-1V6.4z M234.3,4.1c0,1.9,1.4,3.4,3.4,3.4c1.9,0,3.4-1.5,3.4-3.4c0-1.9-1.4-3.4-3.4-3.4
		C235.8,0.7,234.3,2.2,234.3,4.1 M241.7,4.1c0,2.2-1.7,4-4,4c-2.3,0-4-1.7-4-4c0-2.2,1.7-4,4-4C239.9,0.1,241.7,1.9,241.7,4.1"/>
</g>
</svg>
