<svg xmlns="http://www.w3.org/2000/svg" viewBox="0 0 502.56 151.49"><defs><style>.cls-1{fill:#231f20;}.cls-2{fill:#273386;}</style></defs><g id="Layer_2" data-name="Layer 2"><g id="Layer_1-2" data-name="Layer 1"><path class="cls-1" d="M204.78,13.54V26H172.35V41.46h28.1V52.92h-28.1V80.65H157.59V13.54Z"/><path class="cls-1" d="M222.82,13.54V80.65H209.47V13.54Z"/><path class="cls-1" d="M228.09,47a15.42,15.42,0,0,1,2.35-7.8,15.85,15.85,0,0,1,5.26-5,23,23,0,0,1,7.19-2.68,41.05,41.05,0,0,1,8-.8,53.52,53.52,0,0,1,7.42.52,22.7,22.7,0,0,1,6.87,2,13.54,13.54,0,0,1,5.07,4.18,11.67,11.67,0,0,1,2,7.1V69.84a50.83,50.83,0,0,0,.37,6.3A11.26,11.26,0,0,0,274,80.65H260.42a19.43,19.43,0,0,1-.61-2.3,18.74,18.74,0,0,1-.33-2.4A17.38,17.38,0,0,1,252,80.56a30.09,30.09,0,0,1-8.83,1.32,24,24,0,0,1-6.49-.85,14.71,14.71,0,0,1-5.26-2.63,12.29,12.29,0,0,1-3.53-4.51,15.36,15.36,0,0,1-1.27-6.49A14.14,14.14,0,0,1,228,60.59a12.05,12.05,0,0,1,3.76-4.28,16.65,16.65,0,0,1,5.26-2.4,59.29,59.29,0,0,1,6-1.27q3-.47,5.92-.75a35.05,35.05,0,0,0,5.17-.85,9,9,0,0,0,3.58-1.64,3.64,3.64,0,0,0,1.22-3.15,7.09,7.09,0,0,0-.71-3.43,5.1,5.1,0,0,0-1.88-2,7.25,7.25,0,0,0-2.72-.94,22,22,0,0,0-3.34-.24,10.1,10.1,0,0,0-6.2,1.69q-2.26,1.7-2.64,5.64Zm30.83,9.87a6,6,0,0,1-2.12,1.18,22,22,0,0,1-2.72.7c-1,.19-2,.35-3.06.47s-2.13.28-3.19.47a24.66,24.66,0,0,0-3,.75,8.88,8.88,0,0,0-2.54,1.27,6.17,6.17,0,0,0-1.74,2,6.52,6.52,0,0,0-.66,3.11,6.22,6.22,0,0,0,.66,3,5,5,0,0,0,1.78,1.93,7.63,7.63,0,0,0,2.64,1,16.55,16.55,0,0,0,3.1.28,11.77,11.77,0,0,0,6.11-1.32,8.74,8.74,0,0,0,3.19-3.14,10,10,0,0,0,1.27-3.72,24.84,24.84,0,0,0,.24-3Z"/><path class="cls-1" d="M301.12,40.8a9.28,9.28,0,0,0-5.35,1.46A11.46,11.46,0,0,0,292.24,46a16.21,16.21,0,0,0-1.93,5.07,28,28,0,0,0-.56,5.5,26.82,26.82,0,0,0,.56,5.36,16.5,16.5,0,0,0,1.84,4.93,10.33,10.33,0,0,0,3.43,3.62,9.41,9.41,0,0,0,5.26,1.41q4.8,0,7.38-2.68A12.67,12.67,0,0,0,311.46,62h12.88Q323,71.73,316.82,76.8t-15.88,5.08a26.47,26.47,0,0,1-10-1.84,22.18,22.18,0,0,1-7.75-5.12,23.29,23.29,0,0,1-5-7.85,27.21,27.21,0,0,1-1.79-10,32.29,32.29,0,0,1,1.65-10.48,23.48,23.48,0,0,1,4.84-8.37,22.2,22.2,0,0,1,7.8-5.5,26.61,26.61,0,0,1,10.53-2,30.6,30.6,0,0,1,8.32,1.13,22.08,22.08,0,0,1,7.14,3.43,17.75,17.75,0,0,1,7.38,13.86H311Q309.69,40.81,301.12,40.8Z"/><path class="cls-1" d="M341.73,13.54v36l16.83-17.48h15.79L356,49.92l20.4,30.73H360.25L346.9,58.94l-5.17,5V80.65H328.38V13.54Z"/><path class="cls-1" d="M361.66,26V13.54h55V26H396.53v54.7H381.77V26Z"/><path class="cls-1" d="M418.34,69c2,1.94,4.89,2.91,8.65,2.91a11.87,11.87,0,0,0,6.95-2,8.42,8.42,0,0,0,3.58-4.28h11.75q-2.83,8.74-8.65,12.51a25.53,25.53,0,0,1-14.1,3.76A27.57,27.57,0,0,1,416.18,80a21.57,21.57,0,0,1-7.81-5.21,23.49,23.49,0,0,1-4.93-8.09A29.56,29.56,0,0,1,401.7,56.4a28.35,28.35,0,0,1,1.79-10.15,23.49,23.49,0,0,1,12.92-13.54,25.29,25.29,0,0,1,10.11-2,23.1,23.1,0,0,1,10.81,2.4,21.49,21.49,0,0,1,7.56,6.44,26.33,26.33,0,0,1,4.28,9.21,34.26,34.26,0,0,1,.94,10.81H415.05Q415.34,66.08,418.34,69Zm15.09-25.57q-2.4-2.62-7.29-2.63a11.62,11.62,0,0,0-5.31,1.08,10,10,0,0,0-3.38,2.68,9.62,9.62,0,0,0-1.79,3.38,15.47,15.47,0,0,0-.61,3.2h21.71A15.44,15.44,0,0,0,433.43,43.43Z"/><path class="cls-1" d="M467.88,13.54v36L484.7,32.06h15.79L482.16,49.92l20.4,30.73H486.39L473.05,58.94l-5.17,5V80.65H454.53V13.54Z"/><path class="cls-1" d="M185.31,98.23a7.27,7.27,0,0,0-2.11-2.94,8,8,0,0,0-3.36-1.57,19.79,19.79,0,0,0-4.36-.45,16,16,0,0,0-3.52.42A12.7,12.7,0,0,0,168.54,95,8.12,8.12,0,0,0,166,97.31a5.73,5.73,0,0,0-1,3.45,6.52,6.52,0,0,0,.58,2.85,6.42,6.42,0,0,0,1.57,2,8.92,8.92,0,0,0,2.37,1.44,27.52,27.52,0,0,0,2.91,1l6.14,1.67a28.85,28.85,0,0,1,4.1,1.44,13,13,0,0,1,3.52,2.24,10,10,0,0,1,2.46,3.48,12.88,12.88,0,0,1,.93,5.19,11.29,11.29,0,0,1-1.63,6.17,14.17,14.17,0,0,1-4.19,4.29,19,19,0,0,1-5.73,2.53,24.68,24.68,0,0,1-6.24.83,29,29,0,0,1-7.55-.93,15.64,15.64,0,0,1-5.86-2.84,12.13,12.13,0,0,1-3.65-5,16,16,0,0,1-.93-7.27h6.08a12.75,12.75,0,0,0,.71,5.19,7.83,7.83,0,0,0,2.46,3.39,10,10,0,0,0,3.94,1.82,21.53,21.53,0,0,0,5.05.55,17.13,17.13,0,0,0,4.2-.52,11.85,11.85,0,0,0,3.68-1.56,8.42,8.42,0,0,0,2.59-2.72,7.64,7.64,0,0,0,1-4,6.42,6.42,0,0,0-.64-3,6.28,6.28,0,0,0-1.76-2.11,10.26,10.26,0,0,0-2.59-1.44,31.26,31.26,0,0,0-3.14-1l-6.21-1.67a21.84,21.84,0,0,1-3.9-1.5,12.63,12.63,0,0,1-3.26-2.31,10.13,10.13,0,0,1-2.24-3.26,10.87,10.87,0,0,1-.84-4.45,11,11,0,0,1,1.48-5.79,13.64,13.64,0,0,1,3.8-4.13A16.8,16.8,0,0,1,169.44,89a22.13,22.13,0,0,1,6-.84,23.3,23.3,0,0,1,6.44.87,15.86,15.86,0,0,1,5.34,2.62,12.27,12.27,0,0,1,3.62,4.51,14.13,14.13,0,0,1,1.18,6.6H186A11.46,11.46,0,0,0,185.31,98.23Z"/><path class="cls-1" d="M204,101.85l-1.15,4.74h.13a13.49,13.49,0,0,1,5-4.36,16.06,16.06,0,0,1,11.52-.16,11.24,11.24,0,0,1,6.56,7.08,17.15,17.15,0,0,1,.84,5.5,23.72,23.72,0,0,1-1.25,7.52,22.32,22.32,0,0,1-3.59,6.75,18,18,0,0,1-5.76,4.87,16.11,16.11,0,0,1-7.77,1.85,20.21,20.21,0,0,1-3.11-.25,11.38,11.38,0,0,1-3.07-.93,9.15,9.15,0,0,1-2.56-1.79,6.2,6.2,0,0,1-1.57-2.79h-.12l-3.52,17.67h-5.32l9.6-45.7Zm15.46,6.4q-2-2.37-6.5-2.37a9.85,9.85,0,0,0-5.5,1.6,14.3,14.3,0,0,0-4.06,4,19.8,19.8,0,0,0-2.5,5.32,19,19,0,0,0-.86,5.5,8.92,8.92,0,0,0,2.14,6.14,7.78,7.78,0,0,0,6.18,2.44A10.54,10.54,0,0,0,214,129.4a13.87,13.87,0,0,0,4.1-3.87,17.39,17.39,0,0,0,2.49-5.25,20,20,0,0,0,.84-5.63A9.57,9.57,0,0,0,219.42,108.25Z"/><path class="cls-1" d="M234.43,122.91a8,8,0,0,0,.7,3.42,7,7,0,0,0,1.92,2.5,9.13,9.13,0,0,0,2.75,1.53,9.36,9.36,0,0,0,3.2.55,10.35,10.35,0,0,0,6-1.64,9.56,9.56,0,0,0,3.52-4.7H258a14.24,14.24,0,0,1-2.05,4.83,13.14,13.14,0,0,1-3.39,3.46,15,15,0,0,1-4.42,2.08,18.25,18.25,0,0,1-5.12.7,16.18,16.18,0,0,1-6.81-1.25,11.63,11.63,0,0,1-4.32-3.2,11.37,11.37,0,0,1-2.24-4.28,16.94,16.94,0,0,1-.64-4.52,26.36,26.36,0,0,1,1.37-8.67,21.73,21.73,0,0,1,3.72-6.75,16.41,16.41,0,0,1,5.44-4.35,14.34,14.34,0,0,1,6.49-1.54q7.31,0,10.66,3.84T260,115.74a15.75,15.75,0,0,1-.19,2.43c-.13.77-.24,1.39-.32,1.86h-24.9A21,21,0,0,0,234.43,122.91Zm19.93-11.11a7.89,7.89,0,0,0-1.28-3,7,7,0,0,0-2.46-2.11,8.13,8.13,0,0,0-3.78-.8,11.62,11.62,0,0,0-4.25.74,10.59,10.59,0,0,0-3.3,2,12.07,12.07,0,0,0-2.37,3,17.34,17.34,0,0,0-1.53,3.62h19.2A12.32,12.32,0,0,0,254.36,111.8Z"/><path class="cls-1" d="M266.87,122.91a8,8,0,0,0,.71,3.42,7,7,0,0,0,1.92,2.5,9.13,9.13,0,0,0,2.75,1.53,9.36,9.36,0,0,0,3.2.55,10.38,10.38,0,0,0,6-1.64,9.62,9.62,0,0,0,3.52-4.7h5.44a14.24,14.24,0,0,1-2.05,4.83,13.14,13.14,0,0,1-3.39,3.46,15.09,15.09,0,0,1-4.42,2.08,18.3,18.3,0,0,1-5.12.7,16.27,16.27,0,0,1-6.82-1.25,11.67,11.67,0,0,1-4.31-3.2,11.54,11.54,0,0,1-2.25-4.28,17.35,17.35,0,0,1-.64-4.52,26.1,26.1,0,0,1,1.38-8.67,21.71,21.71,0,0,1,3.71-6.75,16.51,16.51,0,0,1,5.44-4.35,14.41,14.41,0,0,1,6.5-1.54q7.29,0,10.66,3.84t3.36,10.82a14.58,14.58,0,0,1-.2,2.43c-.12.77-.23,1.39-.32,1.86H267.07A21,21,0,0,0,266.87,122.91Zm19.94-11.11a7.89,7.89,0,0,0-1.28-3,7,7,0,0,0-2.46-2.11,8.19,8.19,0,0,0-3.78-.8,11.58,11.58,0,0,0-4.25.74,10.59,10.59,0,0,0-3.3,2,12.07,12.07,0,0,0-2.37,3,17.92,17.92,0,0,0-1.54,3.62H287A12.71,12.71,0,0,0,286.81,111.8Z"/><path class="cls-1" d="M317.24,134.94l1.15-4.74h-.12a13.1,13.1,0,0,1-5,4.32,16.19,16.19,0,0,1-11.49.13,11.57,11.57,0,0,1-4.09-2.75,11.31,11.31,0,0,1-2.5-4.26,17.44,17.44,0,0,1-.83-5.5,23.67,23.67,0,0,1,1.25-7.52,22.3,22.3,0,0,1,3.58-6.75,18.56,18.56,0,0,1,5.76-4.9,15.83,15.83,0,0,1,7.78-1.89,17.79,17.79,0,0,1,3.13.29,12.11,12.11,0,0,1,3,1,8.6,8.6,0,0,1,2.53,1.79,6.76,6.76,0,0,1,1.6,2.79h.13l3.52-17.67H332l-9.67,45.7Zm-15.45-6.4q2,2.37,6.49,2.37a9.88,9.88,0,0,0,5.51-1.6,14.33,14.33,0,0,0,4.06-4,20.35,20.35,0,0,0,3.36-10.81,9,9,0,0,0-2.14-6.15,7.81,7.81,0,0,0-6.18-2.43,10.57,10.57,0,0,0-5.7,1.51,13.84,13.84,0,0,0-4.09,3.87,17.65,17.65,0,0,0-2.5,5.25,20.37,20.37,0,0,0-.83,5.63A9.52,9.52,0,0,0,301.79,128.54Z"/><path class="cls-1" d="M347.77,89.24l6.08,39.3H354l22.59-39.3H385l-9.67,45.7h-5.82l9.34-40h-.13l-23.29,40h-5.83l-5.95-40h-.13l-8,40h-5.82l9.6-45.7Z"/><path class="cls-1" d="M395.07,101.85l-6.92,33.09h-5.37l6.84-33.09Zm-4.23-5.95,1.41-6.66h5.5l-1.41,6.66Z"/><path class="cls-1" d="M399.22,101.85h6.28l5,12,9.85-12h6.6l-14.21,16,8.45,17.09H415l-6-13.57-11.26,13.57h-6.53l15.42-17.54Z"/><path class="cls-1" d="M430.26,122.91a8,8,0,0,0,.71,3.42,7,7,0,0,0,1.92,2.5,9.13,9.13,0,0,0,2.75,1.53,9.32,9.32,0,0,0,3.2.55,10.38,10.38,0,0,0,6-1.64,9.62,9.62,0,0,0,3.52-4.7h5.44a14.24,14.24,0,0,1-2.05,4.83,13.14,13.14,0,0,1-3.39,3.46,15.09,15.09,0,0,1-4.42,2.08,18.3,18.3,0,0,1-5.12.7,16.27,16.27,0,0,1-6.82-1.25,11.79,11.79,0,0,1-4.32-3.2,11.66,11.66,0,0,1-2.24-4.28,17.35,17.35,0,0,1-.64-4.52,26.1,26.1,0,0,1,1.38-8.67,21.71,21.71,0,0,1,3.71-6.75,16.51,16.51,0,0,1,5.44-4.35,14.41,14.41,0,0,1,6.5-1.54q7.29,0,10.65,3.84t3.36,10.82a14.6,14.6,0,0,1-.19,2.43c-.13.77-.23,1.39-.32,1.86H430.46A21,21,0,0,0,430.26,122.91ZM450.2,111.8a7.89,7.89,0,0,0-1.28-3,7,7,0,0,0-2.46-2.11,8.19,8.19,0,0,0-3.78-.8,11.68,11.68,0,0,0-4.26.74,10.54,10.54,0,0,0-3.29,2,12.07,12.07,0,0,0-2.37,3,17.92,17.92,0,0,0-1.54,3.62h19.2A12.32,12.32,0,0,0,450.2,111.8Z"/><path class="cls-1" d="M468.34,101.85l-1.6,7.1h.13a18.14,18.14,0,0,1,4.9-5.63,11.53,11.53,0,0,1,7.13-2.24,7.27,7.27,0,0,0,1-.06,2.65,2.65,0,0,1,1,.06l-1.28,5.83a3.32,3.32,0,0,0-.83-.07h-.77c-.68,0-1.24,0-1.66,0a8.71,8.71,0,0,0-1.6.29,10.52,10.52,0,0,0-4,2,13.93,13.93,0,0,0-3,3.39,13.43,13.43,0,0,0-1.73,3.74c-.43,1.43-.77,2.77-1,4l-3.14,14.66h-5.38l6.85-33.09Z"/><path class="cls-2" d="M146.44,98.93s-2.37,3.79-4.37,6.75c-1.54,2.28-3.62,5.08-5.25,7.27s-3.1,4-4.91,6a71.08,71.08,0,0,1-5.53,5.34,73.22,73.22,0,0,1-6.85,5.14c-2.16,1.43-4.48,2.7-6.53,3.82l-.36.19c-2,1.06-4.79,2.41-7.25,3.44-15.64,6.51-33.86,6.94-48.76,1.15a75.68,75.68,0,0,1-9.73-4.58,55.25,55.25,0,0,1-9.12-6.27l-1.23-1A53,53,0,0,1,29,118.56c-8.28-10.12-14.28-18.68-16.08-36.78a71.44,71.44,0,0,1-.14-15.63c2.59-19,12.85-35.25,28.16-44.73a53,53,0,0,1,7.22-3.67c19.07-8.24,32.37-6.88,47.64-2a38.71,38.71,0,0,1,7,3.28l.68.38A56.81,56.81,0,0,1,131.35,57l.3,1.4c.4,1.85.77,3.6,1,5.22a52.74,52.74,0,0,1-35.14,56.05c-12.63,4.26-26.38,3.24-39.77-2.94a35,35,0,0,1-9.14-6.39,40.07,40.07,0,0,1-6.09-7,43.55,43.55,0,0,1-4.26-7.08l-.29-.68a51.41,51.41,0,0,1-2.66-7.23,48.48,48.48,0,0,1-2-10.13,71.64,71.64,0,0,1,0-9,42.5,42.5,0,0,1,1.5-7.81C38.68,48.6,49.38,38.16,62.73,34.14c11.41-3.45,27.5-2.53,37.71,7.27a28.59,28.59,0,0,1,5.68,6.79c.38.67.71,1.24,1,1.77a29.08,29.08,0,0,1,2.59,5.37,56.56,56.56,0,0,1,2.86,9.81,27.59,27.59,0,0,1,.47,4.62l0,.8a20.64,20.64,0,0,1-.25,4.64,38,38,0,0,1-1.32,6,28.06,28.06,0,0,1-2.68,5.53,25,25,0,0,1-3.66,4.91c-7.33,7.64-16.24,11.63-25.11,11.24-6.66-.3-13.49-3.59-19.76-9.53a19.64,19.64,0,0,1-4.09-6.06l-.42-.94A19.1,19.1,0,0,1,54,80.91l-.1-.51a17.29,17.29,0,0,1-.47-5.5,20,20,0,0,1,1.06-6.14C57.66,58.45,64.91,53.14,76.05,53a17.12,17.12,0,0,1,8.81,2c5.89,3.39,10.25,13.33,7,21.07a12.24,12.24,0,0,1-8.06,6.73c-3,.87-7,.21-8.49-2.73-1.3-2.6-1.84-6.6.94-9.28A6,6,0,0,1,80,69.16a5,5,0,0,1,1.61.3,4.77,4.77,0,0,0,3,.21l.24-.11c.49-.33,1.11-1.29.34-2.83s-2.93-4.44-6.07-5.34a13.52,13.52,0,0,0-15.74,7.45c-2.49,5.56-2.57,14,2.1,19.2a21.23,21.23,0,0,0,26.28,4.18l.2-.12a20.93,20.93,0,0,0,4.26-2.94C104.38,81,106.77,70,102.64,59.65,99,50.55,92.05,44.34,83.06,42.15a36,36,0,0,0-24,2.67A33.77,33.77,0,0,0,45,58.75a34,34,0,0,0-2.22,5.83A40,40,0,0,0,46.5,94.35a35.85,35.85,0,0,0,4.19,6c14.38,16.18,37.87,18.6,55.86,5.76a56.47,56.47,0,0,0,5.15-4.56c.87-.87,2-2.16,2.9-3.29l1-1.21c8.27-9.65,11.47-25,7.94-38.23a57.47,57.47,0,0,0-3-8.28c-.2-.43-.41-.91-.64-1.42a44.1,44.1,0,0,0-2.92-5.88c-1.1-1.64-4.64-6.56-6.13-8.19-16-17.52-47.08-19.82-67.8-5-8.9,6.36-15.42,14.71-18.35,23.52-2,6-3.86,12.75-3.74,20.89a64.07,64.07,0,0,0,7.48,28.64c3.82,6.94,7.23,11.49,11.78,15.7a61.54,61.54,0,0,0,22.62,13A59.19,59.19,0,0,0,93,133.49c10.07-2,18.33-6.77,25.91-11.51,12.32-7.71,20.27-22.43,23.61-33.65,3.46-11.64,3.6-24.57.41-38.41a68.75,68.75,0,0,0-5.6-13.7c-6.51-11.24-13.11-18.42-22.09-24-.43-.26-1-.65-1.67-1.09a46,46,0,0,0-5.61-3.42C93,.91,79.69-1.2,63.31.63a64.22,64.22,0,0,0-8.64,2l-.42.12c-1.44.41-5.91,2-7.42,2.54-18.18,6.81-34,22-41.38,39.61a72.64,72.64,0,0,0-3.14,9.83,83.89,83.89,0,0,0,3.33,49.91c1.57,3.92,3.92,9,4.89,10.75,9.53,17.15,26.45,29.34,47.64,34.33a67,67,0,0,0,15.39,1.73c2.45,0,5-.12,7.55-.36,15.26-1.38,30.12-7.17,40.77-15.88A88.33,88.33,0,0,0,143,110.81a89.69,89.69,0,0,0,8.15-19.14Z"/><path class="cls-1" d="M490.89,94.19a6.09,6.09,0,0,1,2.91.77A5.39,5.39,0,0,1,496,97.14a5.94,5.94,0,0,1,0,5.9,5.41,5.41,0,0,1-2.19,2.18,5.93,5.93,0,0,1-5.88,0,5.45,5.45,0,0,1-2.18-2.18,5.94,5.94,0,0,1,0-5.9A5.39,5.39,0,0,1,488,95,6.06,6.06,0,0,1,490.89,94.19Zm0,.51a5.47,5.47,0,0,0-2.65.7,5,5,0,0,0-2,2,5.37,5.37,0,0,0-.73,2.7,5.48,5.48,0,0,0,.71,2.68,5.06,5.06,0,0,0,2,2,5.39,5.39,0,0,0,2.68.72,5.45,5.45,0,0,0,2.69-.72,5.13,5.13,0,0,0,2-2,5.48,5.48,0,0,0,.71-2.68,5.37,5.37,0,0,0-.73-2.7,5,5,0,0,0-2-2A5.48,5.48,0,0,0,490.89,94.7Zm-3.26,1.77h3.21a2.75,2.75,0,0,1,1.84.54,1.7,1.7,0,0,1,.63,1.32,1.62,1.62,0,0,1-.42,1.11,2.83,2.83,0,0,1-1.42.74l1.74,2.48a2.45,2.45,0,0,0,.56.61,1,1,0,0,0,.44.13v.27h-1.53l-2.45-3.37h-.63v2.57a.55.55,0,0,0,.24.4,1.38,1.38,0,0,0,.74.13v.27h-3.05v-.27a1.24,1.24,0,0,0,.56-.1.55.55,0,0,0,.24-.28,2.75,2.75,0,0,0,.06-.77V97.89c0-.41,0-.65,0-.72a.55.55,0,0,0-.21-.3,1,1,0,0,0-.53-.1Zm2,3.47a4,4,0,0,0,1.44-.19,1.58,1.58,0,0,0,.69-.54,1.34,1.34,0,0,0,.24-.79,1.5,1.5,0,0,0-.47-1.13,1.66,1.66,0,0,0-1.2-.46,2.17,2.17,0,0,0-.7.14Z"/></g></g></svg>