<?xml version="1.0" encoding="UTF-8"?> <svg xmlns="http://www.w3.org/2000/svg" width="140" height="42" viewBox="0 0 140 42" fill="none"><g clip-path="url(#clip0_1989_17765)"><path d="M19.7011 9.62781H21.3739L28.8836 26.2959H26.4766L24.2622 21.3737H17.0895L15.0075 26.2959H12.6006L19.7011 9.62781ZM23.1911 19.2556L20.4593 13.2382L18.0523 19.2556H23.1911Z" fill="#11279C"></path><path d="M30.6768 26.2718V9.62777H36.2729C38.1175 9.54298 39.9562 9.89341 41.6404 10.6507C42.9563 11.3232 44.0478 12.3646 44.7815 13.6474C45.5676 14.9426 45.9839 16.4286 45.9849 17.9438C45.9863 19.0389 45.7676 20.1231 45.3417 21.132C44.9158 22.1409 44.2915 23.0539 43.5058 23.8167C42.7029 24.6049 41.7435 25.2158 40.6897 25.6099C40.1368 25.8398 39.5594 26.0053 38.9687 26.1033C37.9736 26.2095 36.9725 26.2497 35.972 26.2237L30.6768 26.2718ZM36.0202 11.8301H33.0476V24.1657H36.1044C37.0332 24.1889 37.9616 24.1081 38.8724 23.925C39.4489 23.7958 40.0041 23.585 40.5212 23.2992C40.9666 23.0575 41.3725 22.749 41.7246 22.3846C42.3082 21.7902 42.7657 21.0841 43.0697 20.3086C43.3737 19.5331 43.5179 18.7042 43.4937 17.8716C43.5194 17.0571 43.3718 16.2464 43.0606 15.4933C42.7494 14.7401 42.2817 14.0617 41.6885 13.503C41.2334 13.0839 40.7182 12.7351 40.1601 12.468C39.6345 12.2242 39.0807 12.0463 38.5114 11.9384C37.6855 11.8304 36.853 11.7821 36.0202 11.794V11.8301Z" fill="#11279C"></path><path d="M58.2361 9.62781H60.6431L53.5787 26.3681H53.0371L45.8765 9.62781H48.2834L53.2778 21.3015L58.2361 9.62781Z" fill="#11279C"></path><path d="M65.3002 9.62781H66.973L74.4225 26.332H72.0156L69.8012 21.3737H62.6887L60.6067 26.2959H58.1997L65.3002 9.62781ZM68.7903 19.2556L66.1065 13.2382L63.6274 19.2556H68.7903Z" fill="#11279C"></path><path d="M89.4541 9.62781H91.7166V26.2959H89.6707L78.5506 13.503V26.2959H76.3242V9.62781H78.2257L89.43 22.5411L89.4541 9.62781Z" fill="#11279C"></path><path d="M109.588 22.4448V25.0683C107.712 26.0507 105.616 26.5354 103.499 26.4764C101.855 26.5257 100.228 26.1396 98.7812 25.3572C97.4969 24.6287 96.4358 23.5634 95.7124 22.2763C94.9781 20.9912 94.604 19.5319 94.6292 18.0521C94.6051 16.91 94.8233 15.7758 95.2692 14.7241C95.7152 13.6724 96.379 12.7271 97.2167 11.9505C98.0697 11.1501 99.0721 10.5255 100.166 10.1125C101.261 9.69952 102.426 9.50619 103.595 9.54354C105.599 9.57865 107.576 10.0166 109.408 10.8313V13.3947C107.69 12.3479 105.727 11.7711 103.715 11.7218C101.958 11.6712 100.253 12.3205 98.9738 13.527C98.3814 14.1174 97.9114 14.8189 97.5906 15.5912C97.2699 16.3636 97.1048 17.1917 97.1048 18.028C97.1048 18.8643 97.2699 19.6924 97.5906 20.4648C97.9114 21.2372 98.3814 21.9387 98.9738 22.529C99.6187 23.1277 100.377 23.5915 101.203 23.8933C102.03 24.195 102.909 24.3286 103.788 24.2861C105.858 24.2441 107.873 23.6046 109.588 22.4448Z" fill="#11279C"></path><path d="M112.513 9.62781H121.936V11.7941H114.896V16.8486H121.695V18.9668H114.896V24.1417H122.117V26.2478H112.489L112.513 9.62781Z" fill="#11279C"></path><path d="M124.728 26.2718V9.62777H130.324C132.169 9.54298 134.008 9.89341 135.692 10.6507C137.008 11.3232 138.099 12.3646 138.833 13.6474C139.619 14.9426 140.035 16.4286 140.036 17.9438C140.036 19.6081 139.53 21.2331 138.584 22.6025C137.638 23.9719 136.298 25.0209 134.741 25.6099C134.188 25.8398 133.611 26.0053 133.02 26.1033C132.025 26.2095 131.024 26.2497 130.023 26.2237L124.728 26.2718ZM130.071 11.8301H127.099V24.1657H130.144C131.072 24.1883 132.001 24.1075 132.912 23.925C133.488 23.7958 134.043 23.585 134.56 23.2992C135.004 23.0545 135.409 22.7463 135.764 22.3846C136.348 21.7913 136.805 21.085 137.107 20.3091C137.409 19.5331 137.55 18.7037 137.521 17.8716C137.552 17.0564 137.407 16.2441 137.095 15.4901C136.784 14.7362 136.313 14.0583 135.716 13.503C135.265 13.0786 134.749 12.7292 134.187 12.468C133.67 12.2252 133.124 12.0474 132.563 11.9384C131.737 11.8304 130.904 11.7821 130.071 11.794V11.8301Z" fill="#11279C"></path><path d="M14.598 30.3757V41.0625H13.7676V30.3757H14.598Z" fill="#11279C"></path><path d="M27.0059 30.3757V41.0625H26.32L18.2928 31.7236V41.0625H17.4624V30.3757H18.1725L26.1755 39.7146V30.3757H27.0059Z" fill="#11279C"></path><path d="M34.4073 30.9413V31.8318C33.9923 31.5762 33.5529 31.3625 33.0955 31.194C32.7533 31.0834 32.3961 31.0266 32.0365 31.0255C31.6428 31.0271 31.2551 31.122 30.9052 31.3023C30.5758 31.4653 30.297 31.7149 30.0989 32.0244C29.9075 32.3355 29.8075 32.6941 29.81 33.0594C29.7892 33.3153 29.8322 33.5724 29.9351 33.8076C30.038 34.0429 30.1976 34.2489 30.3997 34.4073C30.982 34.7807 31.6087 35.0798 32.2651 35.2978C32.9692 35.5406 33.6221 35.9119 34.1907 36.393C34.4316 36.6404 34.6189 36.9348 34.7411 37.2578C34.8632 37.5808 34.9176 37.9255 34.9007 38.2704C34.8801 38.784 34.7222 39.2827 34.4434 39.7146C34.1711 40.1639 33.785 40.5334 33.3242 40.7857C32.8478 41.0439 32.3135 41.1764 31.7717 41.1708C30.7957 41.1349 29.8527 40.808 29.0639 40.2321V39.2693C29.5283 39.6153 30.0239 39.9175 30.5442 40.1719C30.9252 40.3317 31.3344 40.4136 31.7476 40.4126C32.1391 40.4127 32.5243 40.3133 32.8669 40.1238C33.2058 39.9488 33.4892 39.6825 33.6848 39.355C33.8805 39.0275 33.9806 38.6519 33.9741 38.2704C33.9985 37.9925 33.9554 37.7128 33.8485 37.4551C33.7417 37.1974 33.5742 36.9693 33.3603 36.7902C32.7808 36.3921 32.149 36.0762 31.4829 35.8514C30.7933 35.6093 30.1502 35.2511 29.5814 34.7924C29.3486 34.5722 29.1659 34.3046 29.0455 34.0077C28.9251 33.7108 28.8698 33.3915 28.8834 33.0714C28.8851 32.5654 29.0267 32.0698 29.2925 31.6393C29.5659 31.2074 29.9476 30.8547 30.3997 30.6163C30.8676 30.3586 31.394 30.226 31.9281 30.2312C32.8044 30.2337 33.6626 30.4795 34.4073 30.9413Z" fill="#11279C"></path><path d="M44.5282 30.3757V31.0737H40.5567V41.0625H39.7143V31.0737H35.5503V30.3757H44.5282Z" fill="#11279C"></path><path d="M45.8281 30.3756H48.5359C49.2302 30.3516 49.921 30.4832 50.5578 30.7608C51.0304 30.9607 51.4268 31.3065 51.689 31.7476C51.9275 32.1698 52.0519 32.6467 52.0501 33.1316C52.049 33.7274 51.8515 34.3062 51.4882 34.7783C51.1248 35.2504 50.6159 35.5896 50.0403 35.7431C50.3077 35.89 50.5382 36.0957 50.7142 36.3449C50.9764 36.6702 51.2176 37.0118 51.4363 37.3678L53.8433 41.0625H52.8805L51.0271 38.126C50.7062 37.6206 50.4294 37.2194 50.1967 36.9225C50.0188 36.6744 49.8036 36.4552 49.5589 36.2727C49.3766 36.1373 49.1673 36.0429 48.9451 35.9959C48.6592 35.9455 48.3688 35.9253 48.0786 35.9357H46.6465V41.0505H45.8281V30.3756ZM46.6465 31.0737V35.2497H48.4036C48.9244 35.263 49.4431 35.1772 49.932 34.997C50.3118 34.8647 50.6375 34.6109 50.8586 34.2749C51.0653 33.9389 51.1699 33.55 51.1595 33.1557C51.1583 32.8666 51.101 32.5805 50.991 32.3132C50.8969 32.0606 50.7443 31.8337 50.5457 31.6513C50.291 31.4567 50.0008 31.3137 49.6913 31.2301C49.281 31.1116 48.8545 31.0588 48.4276 31.0737H46.6465Z" fill="#11279C"></path><path d="M62.496 30.3757H63.3264V36.2125C63.3623 37.2023 63.1427 38.1846 62.6886 39.0647C62.3205 39.7599 61.7496 40.3265 61.0518 40.6894C60.3828 41.0229 59.6452 41.196 58.8976 41.1949C58.3159 41.2067 57.7369 41.1129 57.1887 40.9181C56.6608 40.7145 56.1813 40.4029 55.7806 40.0035C55.3562 39.5717 55.028 39.0549 54.8178 38.4871C54.5796 37.8236 54.4654 37.1219 54.4809 36.4171V30.3997H55.3594V36.4171C55.3464 37.0274 55.4442 37.635 55.6482 38.2103C55.8133 38.6872 56.0803 39.1225 56.4305 39.486C56.7689 39.8267 57.1805 40.086 57.634 40.2441C58.0676 40.4124 58.5288 40.4981 58.9939 40.4969C59.4499 40.4961 59.9022 40.4146 60.3298 40.2562C60.785 40.1076 61.1977 39.8517 61.5332 39.51C61.8941 39.1434 62.1658 38.6987 62.3275 38.2103C62.5413 37.5997 62.6432 36.9556 62.6284 36.3088L62.496 30.3757Z" fill="#11279C"></path><path d="M70.3549 35.334L74.3745 30.3757H75.2049V41.0625H74.3745V31.5912L70.379 36.5736L66.3714 31.5912V41.0625H65.541V30.3757H66.3714L70.3549 35.334Z" fill="#11279C"></path><path d="M83.6531 30.3757V31.0737H78.7069V35.334H83.5208V36.032H78.7069V40.3765H83.7735V41.0625H77.8765V30.3757H83.6531Z" fill="#11279C"></path><path d="M95.2185 30.3757V41.0625H94.5325L86.5054 31.7236V41.0625H85.687V30.3757H86.385L94.3881 39.7146V30.3757H95.2185Z" fill="#11279C"></path><path d="M105.484 30.3757V31.0737H101.513V41.0625H100.695V31.0737H96.7231V30.3757H105.484Z" fill="#11279C"></path><path d="M111.742 30.9413V31.8318C111.33 31.5786 110.895 31.3651 110.443 31.194C110.1 31.0844 109.743 31.0275 109.383 31.0255C109.011 31.0296 108.644 31.1203 108.312 31.2903C107.977 31.4493 107.694 31.6995 107.494 32.0124C107.303 32.3235 107.203 32.6821 107.205 33.0474C107.184 33.3033 107.227 33.5604 107.33 33.7956C107.433 34.0308 107.593 34.2369 107.795 34.3952C108.378 34.7664 109.005 35.0654 109.66 35.2858C110.364 35.5286 111.017 35.8999 111.586 36.381C111.818 36.6324 111.997 36.9286 112.11 37.2514C112.224 37.5742 112.271 37.9169 112.248 38.2584C112.226 38.7773 112.063 39.2805 111.778 39.7146C111.506 40.1639 111.12 40.5334 110.659 40.7857C110.187 41.0439 109.657 41.1765 109.119 41.1708C108.139 41.1365 107.191 40.8096 106.399 40.2321V39.2693C106.866 39.618 107.366 39.9203 107.891 40.1719C108.272 40.333 108.681 40.4149 109.095 40.4126C109.486 40.4127 109.871 40.3133 110.214 40.1238C110.553 39.9488 110.836 39.6825 111.032 39.355C111.227 39.0275 111.328 38.6519 111.321 38.2704C111.343 37.9974 111.3 37.7231 111.195 37.47C111.091 37.2169 110.928 36.9921 110.719 36.8142C110.143 36.4186 109.515 36.1028 108.854 35.8755C108.159 35.6362 107.512 35.2778 106.94 34.8165C106.713 34.5893 106.538 34.3158 106.425 34.0147C106.313 33.7136 106.267 33.3919 106.291 33.0714C106.292 32.5654 106.434 32.0698 106.7 31.6393C106.976 31.2099 107.357 30.8578 107.807 30.6163C108.275 30.3586 108.801 30.226 109.335 30.2312C110.187 30.2469 111.019 30.4922 111.742 30.9413Z" fill="#11279C"></path><path d="M9.01401 36.8864C7.25345 35.3242 5.84751 33.4034 4.89059 31.2529C3.93368 29.1025 3.44795 26.7722 3.466 24.4185C3.466 11.4932 17.7512 0.998885 35.3821 0.998885C41.9172 0.93955 48.3659 2.49385 54.1563 5.52394C47.7849 1.82695 40.5336 -0.081497 33.1677 2.69566e-06C14.8509 2.69566e-06 0 10.9396 0 24.4185C0 29.786 2.90037 37.0188 9.09825 40.4728L9.01401 36.8864Z" fill="#11279C"></path></g><defs><clipPath id="clip0_1989_17765"><rect width="140" height="41.1949" fill="white"></rect></clipPath></defs></svg> 